<svg xmlns="http://www.w3.org/2000/svg" width="512" height="512" id="online-shopping"><path fill="#303C44" d="M352.2 80.1v22.95H88.77V80.1c0-17.97 14.71-32.69 32.68-32.69h198.07c17.97 0 32.68 14.72 32.68 32.69z"></path><path fill="#DD6475" d="m386.28 164.88 12.78 23.2H41.91l46.86-85.03h263.44l34.06 61.83z"></path><path fill="#C9314B" d="M86.55 188.08v37.04c0 10.87-7.83 19.91-18.19 21.84-1.33.25-2.71.39-4.13.39-12.32 0-22.32-9.96-22.32-22.23v-37.04h44.64z"></path><path fill="#ECEFF0" d="M131.2 188.08v37.04c0 12.28-10 22.23-22.32 22.23-8.85 0-16.49-5.12-20.11-12.55v-.01a22.05 22.05 0 0 1-2.22-9.67v-37.04h44.65z"></path><path fill="#C9314B" d="M175.84 188.08v37.04c0 12.28-9.99 22.23-22.32 22.23s-22.32-9.95-22.32-22.23v-37.04h44.64z"></path><path fill="#ECEFF0" d="M220.49 188.08v37.04c0 12.28-10 22.23-22.32 22.23-12.33 0-22.33-9.95-22.33-22.23v-37.04h44.65z"></path><path fill="#C9314B" d="M265.13 188.08v37.04c0 12.28-9.99 22.23-22.32 22.23s-22.32-9.95-22.32-22.23v-37.04h44.64z"></path><path fill="#ECEFF0" d="M309.78 188.08v37.04c0 12.28-10 22.23-22.32 22.23-12.33 0-22.33-9.95-22.33-22.23v-37.04h44.65z"></path><path fill="#C9314B" d="M354.42 188.08v37.04c0 3.47-.8 6.75-2.22 9.67v.01a22.316 22.316 0 0 1-20.1 12.55c-12.33 0-22.32-9.95-22.32-22.23v-37.04h44.64z"></path><path fill="#ECEFF0" d="M399.06 188.08v37.04c0 3.02-.61 5.91-1.71 8.54a22.307 22.307 0 0 1-20.61 13.69c-12.33 0-22.32-9.95-22.32-22.23v-37.04h44.64z"></path><path fill="#303C44" d="M352.2 408.95v22.96c0 17.97-14.71 32.68-32.68 32.68H121.45c-17.97 0-32.68-14.71-32.68-32.68v-22.96H352.2z"></path><path fill="#007ECA" d="M352.2 234.8v174.15H88.77V234.8a22.343 22.343 0 0 0 20.11 12.55c12.32 0 22.32-9.95 22.32-22.23 0 12.28 9.99 22.23 22.32 22.23s22.32-9.95 22.32-22.23c0 12.28 10 22.23 22.33 22.23 12.32 0 22.32-9.95 22.32-22.23 0 12.28 9.99 22.23 22.32 22.23s22.32-9.95 22.32-22.23c0 12.28 10 22.23 22.33 22.23.99 0 1.97-.06 2.92-.2 9.72-1.26 17.48-8.75 19.09-18.33.2-1.2.31-2.44.31-3.7 0 1.08.08 2.13.23 3.17 1.54 10.78 10.84 19.06 22.09 19.06 8.85 0 16.49-5.12 20.1-12.55z"></path><path d="M352.2 234.8v13.33a22.316 22.316 0 0 1-20.1 12.55c-12.33 0-22.32-9.95-22.32-22.23 0 12.28-10 22.23-22.32 22.23-12.33 0-22.33-9.95-22.33-22.23 0 12.28-9.99 22.23-22.32 22.23s-22.32-9.95-22.32-22.23c0 12.28-10 22.23-22.32 22.23-12.33 0-22.33-9.95-22.33-22.23 0 12.28-9.99 22.23-22.32 22.23s-22.32-9.95-22.32-22.23c0 12.28-10 22.23-22.32 22.23-8.85 0-16.49-5.12-20.11-12.55V234.8a22.343 22.343 0 0 0 20.11 12.55c12.32 0 22.32-9.95 22.32-22.23 0 12.28 9.99 22.23 22.32 22.23s22.32-9.95 22.32-22.23c0 12.28 10 22.23 22.33 22.23 12.32 0 22.32-9.95 22.32-22.23 0 12.28 9.99 22.23 22.32 22.23s22.32-9.95 22.32-22.23c0 12.28 10 22.23 22.33 22.23 12.32 0 22.32-9.95 22.32-22.23 0 12.28 9.99 22.23 22.32 22.23 8.85 0 16.49-5.12 20.1-12.55z" opacity=".2"></path><path fill="#FFC035" d="M470.09 180.65v53.01h-72.74c1.1-2.63 1.71-5.52 1.71-8.54v-37.04l-12.78-23.2h68.04c8.71 0 15.77 7.06 15.77 15.77z"></path><path fill="#526471" d="M354.42 225.12c0 12.28 9.99 22.23 22.32 22.23 9.29 0 17.26-5.65 20.61-13.69h72.74v44.68H352.2v-43.55a22.05 22.05 0 0 0 2.22-9.67z"></path><path fill="#FFC035" d="M470.09 278.34v53.01c0 8.7-7.06 15.77-15.77 15.77H352.2v-68.78h117.89z"></path><g opacity=".2"><path d="M403.32 164.88h-17.04l12.78 23.2v37.04c0 3.02-.61 5.91-1.71 8.54-2.26 5.43-6.62 9.76-12.08 12.01 2.62 1.08 5.49 1.68 8.51 1.68 9.29 0 17.26-5.65 20.61-13.69 1.1-2.63 1.71-5.52 1.71-8.54v-37.04l-12.78-23.2zM354.42 225.12c0 3.47-.8 6.75-2.22 9.67v112.33h17.04V246.06c-8.64-3.06-14.82-11.28-14.82-20.94z"></path></g><path fill="none" d="M88.77 241.92v-7.12M88.77 103.05V80.1c0-17.97 14.71-32.69 32.68-32.69h198.07c17.97 0 32.68 14.72 32.68 32.69v22.95M352.2 389.14V234.8M352.2 389.15v42.76c0 17.97-14.71 32.68-32.68 32.68H121.45c-17.97 0-32.68-14.71-32.68-32.68V241.92M352.2 408.95h-62.34M289.86 408.95H88.77"></path><path fill="#ECEFF0" d="M250.05 80.4h-59.13a4 4 0 0 1 0-8h59.13a4 4 0 0 1 0 8zM152.59 80.4h-15.94a4 4 0 0 1 0-8h15.94a4 4 0 0 1 0 8zM250.05 439.61h-59.13a4 4 0 0 1 0-8h59.13a4 4 0 0 1 0 8z"></path><path fill="none" d="M470.09 278.34v53.01c0 8.7-7.06 15.77-15.77 15.77H352.2M386.28 164.88h68.04c8.71 0 15.77 7.06 15.77 15.77v53.01M397.35 233.66h72.74v44.68H352.2M88.77 103.05l-46.86 85.03h357.15l-12.78-23.2h-.01l-34.06-61.83h-.01zM41.91 188.08v37.04M41.91 225.12c0 12.27 10 22.23 22.32 22.23 1.42 0 2.8-.14 4.13-.39 10.36-1.93 18.19-10.97 18.19-21.84M86.55 225.12v-37.04"></path><path fill="none" d="M131.2 225.12c0 12.28-10 22.23-22.32 22.23-8.85 0-16.49-5.12-20.11-12.55v-.01a22.05 22.05 0 0 1-2.22-9.67M131.2 188.08v37.04M175.84 225.12c0 12.28-9.99 22.23-22.32 22.23s-22.32-9.95-22.32-22.23M175.84 188.08v37.04M220.49 225.12c0 12.28-10 22.23-22.32 22.23-12.33 0-22.33-9.95-22.33-22.23M220.49 188.08v37.04M265.13 225.12c0 12.28-9.99 22.23-22.32 22.23s-22.32-9.95-22.32-22.23M265.13 188.08v37.04M309.78 225.12c0 12.28-10 22.23-22.32 22.23-12.33 0-22.33-9.95-22.33-22.23M309.78 188.08v37.04M354.42 225.12c0 3.47-.8 6.75-2.22 9.67v.01a22.316 22.316 0 0 1-20.1 12.55c-12.33 0-22.32-9.95-22.32-22.23M354.42 188.08v37.04M399.06 225.12c0 3.02-.61 5.91-1.71 8.54a22.307 22.307 0 0 1-20.61 13.69c-12.33 0-22.32-9.95-22.32-22.23M399.06 225.12v-37.04"></path><linearGradient id="a" x1="64.23" x2="86.55" y1="217.715" y2="217.715" gradientUnits="userSpaceOnUse"><stop offset="0"></stop><stop offset="1" stop-color="#FFF" stop-opacity="0"></stop></linearGradient><path fill="url(#a)" d="M86.55 188.08v37.04c0 10.87-7.83 19.91-18.19 21.84-1.33.25-2.71.39-4.13.39v-59.27h22.32z" opacity=".2"></path><linearGradient id="b" x1="108.875" x2="131.195" y1="217.715" y2="217.715" gradientUnits="userSpaceOnUse"><stop offset="0"></stop><stop offset="1" stop-color="#FFF" stop-opacity="0"></stop></linearGradient><path fill="url(#b)" d="M131.195 188.08v37.04c0 10.87-7.83 19.91-18.19 21.84-1.33.25-2.71.39-4.13.39v-59.27h22.32z" opacity=".2"></path><linearGradient id="c" x1="153.52" x2="175.84" y1="217.715" y2="217.715" gradientUnits="userSpaceOnUse"><stop offset="0"></stop><stop offset="1" stop-color="#FFF" stop-opacity="0"></stop></linearGradient><path fill="url(#c)" d="M175.84 188.08v37.04c0 10.87-7.83 19.91-18.19 21.84-1.33.25-2.71.39-4.13.39v-59.27h22.32z" opacity=".2"></path><linearGradient id="d" x1="198.165" x2="220.485" y1="217.715" y2="217.715" gradientUnits="userSpaceOnUse"><stop offset="0"></stop><stop offset="1" stop-color="#FFF" stop-opacity="0"></stop></linearGradient><path fill="url(#d)" d="M220.485 188.08v37.04c0 10.87-7.83 19.91-18.19 21.84-1.33.25-2.71.39-4.13.39v-59.27h22.32z" opacity=".2"></path><linearGradient id="e" x1="242.81" x2="265.13" y1="217.715" y2="217.715" gradientUnits="userSpaceOnUse"><stop offset="0"></stop><stop offset="1" stop-color="#FFF" stop-opacity="0"></stop></linearGradient><path fill="url(#e)" d="M265.13 188.08v37.04c0 10.87-7.83 19.91-18.19 21.84-1.33.25-2.71.39-4.13.39v-59.27h22.32z" opacity=".2"></path><linearGradient id="f" x1="287.455" x2="309.775" y1="217.715" y2="217.715" gradientUnits="userSpaceOnUse"><stop offset="0"></stop><stop offset="1" stop-color="#FFF" stop-opacity="0"></stop></linearGradient><path fill="url(#f)" d="M309.775 188.08v37.04c0 10.87-7.83 19.91-18.19 21.84-1.33.25-2.71.39-4.13.39v-59.27h22.32z" opacity=".2"></path><linearGradient id="g" x1="332.1" x2="354.42" y1="217.715" y2="217.715" gradientUnits="userSpaceOnUse"><stop offset="0"></stop><stop offset="1" stop-color="#FFF" stop-opacity="0"></stop></linearGradient><path fill="url(#g)" d="M354.42 188.08v37.04c0 10.87-7.83 19.91-18.19 21.84-1.33.25-2.71.39-4.13.39v-59.27h22.32z" opacity=".2"></path><linearGradient id="h" x1="376.745" x2="399.065" y1="217.715" y2="217.715" gradientUnits="userSpaceOnUse"><stop offset="0"></stop><stop offset="1" stop-color="#FFF" stop-opacity="0"></stop></linearGradient><path fill="url(#h)" d="M399.065 188.08v37.04c0 10.87-7.83 19.91-18.19 21.84-1.33.25-2.71.39-4.13.39v-59.27h22.32z" opacity=".2"></path><linearGradient id="i" x1="214.781" x2="303.557" y1="283.27" y2="437.034" gradientUnits="userSpaceOnUse"><stop offset="0"></stop><stop offset="1" stop-color="#FFF" stop-opacity="0"></stop></linearGradient><path fill="url(#i)" d="M352.2 234.8v174.15H121.94l168.44-161.8c9.72-1.26 17.48-8.75 19.09-18.33l.54-.53c1.54 10.78 10.84 19.06 22.09 19.06 8.85 0 16.49-5.12 20.1-12.55z" opacity=".2"></path></svg>